HIERARCHY
ROOT Hips
{
	OFFSET -21.947001 39.810204 44.525997
	CHANNELS 6 Xposition Yposition Zposition Zrotation Xrotation Yrotation
	JOINT Chest
	{
		OFFSET -0.201599 0.334099 6.453201
		CHANNELS 6 Xposition Yposition Zposition Zrotation Xrotation Yrotation
		JOINT Chest2
		{
			OFFSET 0.000000 0.000000 3.568001
			CHANNELS 6 Xposition Yposition Zposition Zrotation Xrotation Yrotation
			JOINT Neck
			{
				OFFSET 0.000000 0.000000 8.296402
				CHANNELS 6 Xposition Yposition Zposition Zrotation Xrotation Yrotation
				JOINT Head
				{
					OFFSET 0.000000 0.000000 2.173901
					CHANNELS 6 Xposition Yposition Zposition Zrotation Xrotation Yrotation
					End Site
					{
						OFFSET 0.000000 0.000000 7.891998
					}
				}
			}
			JOINT LeftCollar
			{
				OFFSET 1.927601 0.221401 6.049000
				CHANNELS 6 Xposition Yposition Zposition Zrotation Xrotation Yrotation
				JOINT LeftShoulder
				{
					OFFSET 4.959700 0.000000 0.000000
					CHANNELS 6 Xposition Yposition Zposition Zrotation Xrotation Yrotation
					JOINT LeftElbow
					{
						OFFSET 0.000000 0.000000 -8.654202
						CHANNELS 6 Xposition Yposition Zposition Zrotation Xrotation Yrotation
						JOINT LeftWrist
						{
							OFFSET 0.000000 0.000000 -13.864101
							CHANNELS 6 Xposition Yposition Zposition Zrotation Xrotation Yrotation
							End Site
							{
								OFFSET 0.000000 0.000000 -2.173901
							}
						}
					}
				}
			}
			JOINT RightCollar
			{
				OFFSET -3.155701 -0.764999 6.687801
				CHANNELS 6 Xposition Yposition Zposition Zrotation Xrotation Yrotation
				JOINT RightShoulder
				{
					OFFSET -3.592899 0.000000 0.000000
					CHANNELS 6 Xposition Yposition Zposition Zrotation Xrotation Yrotation
					JOINT RightElbow
					{
						OFFSET 0.000000 0.000000 -10.352398
						CHANNELS 6 Xposition Yposition Zposition Zrotation Xrotation Yrotation
						JOINT RightWrist
						{
							OFFSET 0.000000 0.000000 -12.750301
							CHANNELS 6 Xposition Yposition Zposition Zrotation Xrotation Yrotation
							End Site
							{
								OFFSET 0.000000 0.000000 -2.173901
							}
						}
					}
				}
			}
		}
	}
	JOINT LeftHip
	{
		OFFSET 2.460600 -0.518101 -2.735500
		CHANNELS 6 Xposition Yposition Zposition Zrotation Xrotation Yrotation
		JOINT LeftKnee
		{
			OFFSET 0.000000 -0.000004 -17.005899
			CHANNELS 6 Xposition Yposition Zposition Zrotation Xrotation Yrotation
			JOINT LeftAnkle
			{
				OFFSET 0.000000 0.000000 -19.194401
				CHANNELS 6 Xposition Yposition Zposition Zrotation Xrotation Yrotation
				End Site
				{
					OFFSET 0.000000 -8.134600 0.000000
				}
			}
		}
	}
	JOINT RightHip
	{
		OFFSET -3.115499 -0.679600 -2.320301
		CHANNELS 6 Xposition Yposition Zposition Zrotation Xrotation Yrotation
		JOINT RightKnee
		{
			OFFSET 0.000000 -0.000004 -17.680401
			CHANNELS 6 Xposition Yposition Zposition Zrotation Xrotation Yrotation
			JOINT RightAnkle
			{
				OFFSET 0.000000 0.000000 -16.993797
				CHANNELS 6 Xposition Yposition Zposition Zrotation Xrotation Yrotation
				End Site
				{
					OFFSET 0.000000 -8.842300 0.000000
				}
			}
		}
	}
}
MOTION
Frames: 6
Frame Time: 0.041667
57.916420 0.710709 43.318794 2790.260356 31.093941 33.083421 -0.201604 0.334098 6.453203 21.453307 -17.667381 2.743096 -0.000004 0.000003 3.567993 -4.310774 2.690416 0.137016 0.000006 -0.000006 8.296401 236.750913 -162.652144 184.949720 -0.000003 0.000002 2.173898 4.744444 -4.609001 7.110553 1.927602 0.221403 6.049000 -17.980379 0.135525 5.889059 4.959703 0.000000 0.000008 215.124594 152.108941 106.699583 -0.000002 -0.000005 -8.654200 -13.440865 -51.857470 24.227342 0.000002 0.000003 -13.864100 4008.858557 -25.527033 -2.475143 -3.155703 -0.765001 6.687807 50.860447 21.991935 18.492802 -3.592903 -0.000002 0.000003 -239.757835 202.401564 291.765491 0.000000 0.000007 -10.352398 -418.258464 -5.184834 -358.247356 0.000003 0.000005 -12.750308 80.295369 163.434652 -155.787012 2.460600 -0.518103 -2.735495 -951.113459 -13.757393 59.410816 0.000005 0.000000 -17.005898 900.147516 157.824730 -208.395683 -0.000007 -0.000001 -19.194401 81.922204 151.658941 215.783134 -3.115503 -0.679598 -2.320285 -322.430063 45.218369 10.667526 0.000002 -0.000004 -17.680391 -850.675746 182.185857 -281.064962 0.000006 -0.000007 -16.993793 1352.207848 47.786855 -427.199373
57.925606 0.709606 43.316990 2790.247679 31.123475 33.067729 -0.201598 0.334095 6.453198 21.464235 -17.698043 2.770460 0.000004 0.000002 3.568002 -4.293521 2.696304 0.139854 0.000000 -0.000003 8.296393 236.738072 -162.663387 184.971645 -0.000002 -0.000000 2.173898 4.833935 -4.640911 7.011053 1.927604 0.221404 6.048993 -18.007881 0.161995 5.875326 4.959697 -0.000005 0.000007 215.097929 152.044560 106.732204 -0.000005 -0.000005 -8.654205 -13.283442 -51.895716 24.313848 0.000001 0.000007 -13.864107 4008.872982 -25.584618 -2.586892 -3.155703 -0.765001 6.687798 50.996883 22.107205 18.413239 -3.592899 0.000005 0.000006 -239.969462 202.425948 291.701725 0.000008 0.000002 -10.352399 -418.259912 -5.274275 -358.233614 0.000000 0.000002 -12.750307 80.284810 163.196852 -155.826231 2.460605 -0.518107 -2.735504 -951.205366 -13.750154 59.429886 0.000004 -0.000007 -17.005901 900.183088 157.885355 -208.413387 -0.000002 0.000000 -19.194405 82.020053 151.649666 215.714463 -3.115499 -0.679605 -2.320294 -322.346106 45.255034 10.665032 0.000012 0.000001 -17.680401 -850.731261 182.170188 -281.127690 0.000009 0.000001 -16.993793 1352.010702 47.851943 -426.907040
57.935120 0.707211 43.313297 2790.241559 31.158544 33.053741 -0.201602 0.334101 6.453201 21.480238 -17.732585 2.784397 -0.000001 0.000003 3.568001 -4.284418 2.698259 0.141670 -0.000004 0.000003 8.296399 236.715259 -162.681828 184.986221 0.000005 0.000001 2.173900 4.888491 -4.671614 6.932769 1.927601 0.221402 6.048997 -18.041726 0.194834 5.884286 4.959706 0.000000 -0.000001 215.085990 151.992486 106.763336 -0.000005 -0.000003 -8.654193 -13.114543 -51.942147 24.416591 0.000000 -0.000001 -13.864097 4008.891779 -25.646978 -2.753869 -3.155703 -0.764998 6.687804 51.164729 22.262259 18.320015 -3.592900 0.000008 0.000009 -240.252778 202.421972 291.621265 -0.000002 0.000002 -10.352398 -418.291221 -5.361387 -358.228068 -0.000000 0.000002 -12.750304 80.229431 163.028870 -155.763393 2.460600 -0.518099 -2.735497 -951.406665 -13.798685 59.436689 -0.000006 -0.000002 -17.005901 900.298928 158.032710 -208.435776 0.000011 -0.000001 -19.194399 82.079285 151.631415 215.683673 -3.115499 -0.679590 -2.320295 -322.221414 45.301124 10.639787 0.000017 0.000004 -17.680393 -850.808197 182.145654 -281.208560 0.000005 -0.000002 -16.993786 1351.854209 47.905868 -426.616430
57.945206 0.703705 43.307888 2790.232161 31.197272 33.052081 -0.201597 0.334088 6.453200 21.503695 -17.772881 2.778531 0.000001 0.000002 3.568005 -4.282469 2.697376 0.142711 0.000001 0.000006 8.296399 236.688895 -162.702483 184.999608 -0.000006 0.000000 2.173898 4.912130 -4.702019 6.877274 1.927598 0.221414 6.048997 -18.079570 0.232672 5.911323 4.959700 0.000000 0.000000 215.086687 151.956997 106.799604 -0.000003 -0.000007 -8.654203 -12.961775 -51.997322 24.521173 -0.000003 0.000003 -13.864092 4008.916696 -25.705419 -2.965600 -3.155708 -0.764994 6.687796 51.338082 22.432817 18.230142 -3.592896 0.000005 0.000010 -240.571284 202.383532 291.532035 -0.000001 -0.000006 -10.352394 -418.344879 -5.440892 -358.232985 -0.000000 0.000001 -12.750307 80.124731 162.798720 -155.632936 2.460602 -0.518111 -2.735503 -951.692440 -13.905623 59.439803 -0.000003 0.000009 -17.005901 900.395698 158.182905 -208.441691 -0.000002 0.000004 -19.194397 82.282886 151.603808 215.554568 -3.115496 -0.679602 -2.320296 -322.040605 45.353522 10.582229 0.000004 -0.000002 -17.680393 -850.912726 182.125177 -281.303909 -0.000000 -0.000003 -16.993786 1351.759460 47.916253 -426.399312
57.955612 0.699409 43.300884 2790.214894 31.233407 33.068825 -0.201605 0.334097 6.453196 21.541278 -17.814542 2.752262 -0.000003 0.000010 3.568003 -4.289581 2.696654 0.143094 0.000002 -0.000002 8.296394 236.668049 -162.714545 185.026478 -0.000001 0.000001 2.173899 4.938442 -4.739331 6.824570 1.927601 0.221403 6.048998 -18.118033 0.273695 5.946834 4.959703 -0.000000 0.000008 215.097123 151.952544 106.839882 -0.000005 0.000004 -8.654202 -12.829101 -52.045837 24.630110 0.000000 0.000003 -13.864097 4008.902707 -25.740862 -3.123612 -3.155699 -0.764997 6.687799 51.481120 22.583271 18.164473 -3.592907 0.000002 0.000006 -240.867167 202.311747 291.433408 0.000002 -0.000004 -10.352394 -418.392745 -5.528481 -358.236100 -0.000005 0.000001 -12.750310 79.901021 162.714558 -155.378881 2.460598 -0.518106 -2.735502 -952.037665 -14.067534 59.437187 -0.000003 0.000005 -17.005901 900.516729 158.356365 -208.440243 0.000007 -0.000001 -19.194401 82.537843 151.577867 215.391586 -3.115503 -0.679600 -2.320298 -321.825700 45.402894 10.504462 0.000001 -0.000004 -17.680389 -851.016599 182.110124 -281.415105 0.000002 -0.000003 -16.993793 1351.770716 47.885466 -426.274319
57.965309 0.695408 43.293499 2790.191507 31.266386 33.106050 -0.201599 0.334100 6.453204 21.592313 -17.856203 2.705371 0.000001 -0.000001 3.567999 -4.306461 2.700876 0.143207 0.000002 0.000009 8.296394 236.651192 -162.711895 185.066421 -0.000002 0.000001 2.173899 4.963387 -4.782288 6.782491 1.927600 0.221411 6.048998 -18.156415 0.318591 5.977251 4.959698 -0.000005 0.000001 215.111262 151.983020 106.896654 -0.000004 -0.000001 -8.654202 -12.743180 -52.091626 24.728780 0.000001 0.000003 -13.864096 4008.856371 -25.753633 -3.247248 -3.155704 -0.764990 6.687807 51.575916 22.693631 18.135902 -3.592908 0.000002 0.000003 -241.109393 202.203488 291.339315 0.000003 0.000008 -10.352399 -418.429929 -5.604259 -358.237357 0.000007 0.000005 -12.750305 79.589934 162.759733 -155.026839 2.460601 -0.518106 -2.735507 -952.334697 -14.224944 59.448519 0.000001 0.000008 -17.005905 900.567819 158.458900 -208.420600 0.000006 0.000004 -19.194401 82.886722 151.526476 215.116521 -3.115505 -0.679598 -2.320297 -321.695052 45.412012 10.468453 0.000000 0.000001 -17.680399 -851.043866 182.084975 -281.523322 0.000003 -0.000006 -16.993790 1351.794649 47.863705 -426.169462
